#Comment line ignore any data following # character 
#Hierarchical Translation and Rotation (.htr) file 
[Header]	
#Header keywords are followed by a single value 
FileType HTR		#Single word string
DataType HTRS		#Translation followed by rotation and scale data
FileVersion 1		#integer
NumSegments 84		#integer
NumFrames 2		#integer
DataFrameRate 30		#integer, data frame rate in this file
EulerRotationOrder ZYX
CalibrationUnits mm
RotationUnits Degrees
GlobalAxisofGravity Y
BoneLengthAxis Y
ScaleFactor 1.00
[SegmentNames&Hierarchy]
#CHILD	PARENT
MASTER GLOBAL
root MASTER
chest root
L_mid_tent01 root
R_mid_tent01 root
spine01 root
Bip01_Neck chest
L_humerus chest
R_humerus chest
weapon_bone chest
Bip01_Head Bip01_Neck
eye_left_bone Bip01_Head
eye_right_bone Bip01_Head
L_forearm L_humerus
L_front_hand L_forearm
L_weapon_bone L_forearm
L_front_hand01_01 L_front_hand
L_front_hand02_01 L_front_hand
L_front_hand03_01 L_front_hand
L_front_hand01_02 L_front_hand01_01
L_front_hand02_02 L_front_hand02_01
L_front_hand03_02 L_front_hand03_01
R_forearm R_humerus
R_front_hand R_forearm
R_weapon_bone R_forearm
R_front_hand01_01 R_front_hand
R_front_hand02_01 R_front_hand
R_front_hand03_01 R_front_hand
R_front_hand01_02 R_front_hand01_01
R_front_hand02_02 R_front_hand02_01
R_front_hand03_02 R_front_hand03_01
null_rope01_connect L_mid_tent01
Rope1_Seg01 null_rope01_connect
Rope1_Seg02 Rope1_Seg01
Rope1_Seg03 Rope1_Seg02
Rope1_Seg04 Rope1_Seg03
Rope1_Seg05 Rope1_Seg04
Rope1_Seg06 Rope1_Seg05
Rope1_Seg07 Rope1_Seg06
Rope1_Seg09 Rope1_Seg07
L_mid_hand01 Rope1_Seg09
L_mid_hand02 Rope1_Seg09
L_mid_hand03 Rope1_Seg09
null_rope02_connect R_mid_tent01
Rope2_Seg01 null_rope02_connect
Rope2_Seg02 Rope2_Seg01
Rope2_Seg03 Rope2_Seg02
Rope2_Seg04 Rope2_Seg03
Rope2_Seg05 Rope2_Seg04
Rope2_Seg06 Rope2_Seg05
Rope2_Seg07 Rope2_Seg06
Rope2_Seg09 Rope2_Seg07
R_mid_hand01 Rope2_Seg09
R_mid_hand02 Rope2_Seg09
R_mid_hand03 Rope2_Seg09
spine02 spine01
spine03 spine02
pelvis spine03
null_rope03_connect pelvis
null_rope04_connect pelvis
Rope3_Seg01 null_rope03_connect
Rope3_Seg02 Rope3_Seg01
Rope3_Seg03 Rope3_Seg02
Rope3_Seg04 Rope3_Seg03
Rope3_Seg05 Rope3_Seg04
Rope3_Seg06 Rope3_Seg05
Rope3_Seg07 Rope3_Seg06
Rope3_Seg08 Rope3_Seg07
Rope3_Seg09 Rope3_Seg08
R_rear_hand01 Rope3_Seg09
R_rear_hand02 Rope3_Seg09
R_rear_hand03 Rope3_Seg09
Rope4_Seg01 null_rope04_connect
Rope4_Seg02 Rope4_Seg01
Rope4_Seg03 Rope4_Seg02
Rope4_Seg04 Rope4_Seg03
Rope4_Seg05 Rope4_Seg04
Rope4_Seg06 Rope4_Seg05
Rope4_Seg07 Rope4_Seg06
Rope4_Seg08 Rope4_Seg07
Rope4_Seg09 Rope4_Seg08
L_rear_hand01 Rope4_Seg09
L_rear_hand02 Rope4_Seg09
L_rear_hand03 Rope4_Seg09
[BasePosition]
#SegmentName Tx, Ty, Tz, Rx, Ry, Rz, BoneLength
MASTER 0.000000 0.000000 0.000000 -90.000000 0.000000 0.000000 10.000000 
root 0.000000 0.000000 0.000000 0.000000 0.000000 0.000000 10.000000 
chest 0.000000 0.000000 0.000000 0.000000 0.000000 0.000000 10.000000 
L_mid_tent01 0.000000 0.000000 0.000000 0.000000 0.000000 0.000000 10.000000 
R_mid_tent01 0.000000 0.000000 0.000000 0.000000 0.000000 0.000000 10.000000 
spine01 0.000000 0.000000 0.000000 0.000000 0.000000 0.000000 10.000000 
Bip01_Neck 0.000000 0.000000 0.000000 0.000000 0.000000 0.000000 10.000000 
L_humerus 0.000000 0.000000 0.000000 0.000000 0.000000 0.000000 10.000000 
R_humerus 0.000000 0.000000 0.000000 0.000000 0.000000 0.000000 10.000000 
weapon_bone 0.000000 0.000000 0.000000 0.000000 0.000000 0.000000 10.000000 
Bip01_Head 0.000000 0.000000 0.000000 0.000000 0.000000 0.000000 10.000000 
eye_left_bone 0.000000 0.000000 0.000000 0.000000 0.000000 0.000000 10.000000 
eye_right_bone 0.000000 0.000000 0.000000 0.000000 0.000000 0.000000 10.000000 
L_forearm 0.000000 0.000000 0.000000 0.000000 0.000000 0.000000 10.000000 
L_front_hand 0.000000 0.000000 0.000000 0.000000 0.000000 0.000000 10.000000 
L_weapon_bone 0.000000 0.000000 0.000000 0.000000 0.000000 0.000000 10.000000 
L_front_hand01_01 0.000000 0.000000 0.000000 0.000000 0.000000 0.000000 10.000000 
L_front_hand02_01 0.000000 0.000000 0.000000 0.000000 0.000000 0.000000 10.000000 
L_front_hand03_01 0.000000 0.000000 0.000000 0.000000 0.000000 0.000000 10.000000 
L_front_hand01_02 0.000000 0.000000 0.000000 0.000000 0.000000 0.000000 10.000000 
L_front_hand02_02 0.000000 0.000000 0.000000 0.000000 0.000000 0.000000 10.000000 
L_front_hand03_02 0.000000 0.000000 0.000000 0.000000 0.000000 0.000000 10.000000 
R_forearm 0.000000 0.000000 0.000000 0.000000 0.000000 0.000000 10.000000 
R_front_hand 0.000000 0.000000 0.000000 0.000000 0.000000 0.000000 10.000000 
R_weapon_bone 0.000000 0.000000 0.000000 0.000000 0.000000 0.000000 10.000000 
R_front_hand01_01 0.000000 0.000000 0.000000 0.000000 0.000000 0.000000 10.000000 
R_front_hand02_01 0.000000 0.000000 0.000000 0.000000 0.000000 0.000000 10.000000 
R_front_hand03_01 0.000000 0.000000 0.000000 0.000000 0.000000 0.000000 10.000000 
R_front_hand01_02 0.000000 0.000000 0.000000 0.000000 0.000000 0.000000 10.000000 
R_front_hand02_02 0.000000 0.000000 0.000000 0.000000 0.000000 0.000000 10.000000 
R_front_hand03_02 0.000000 0.000000 0.000000 0.000000 0.000000 0.000000 10.000000 
null_rope01_connect 0.000000 0.000000 0.000000 0.000000 0.000000 0.000000 10.000000 
Rope1_Seg01 0.000000 0.000000 0.000000 0.000000 0.000000 0.000000 10.000000 
Rope1_Seg02 0.000000 0.000000 0.000000 0.000000 0.000000 0.000000 10.000000 
Rope1_Seg03 0.000000 0.000000 0.000000 0.000000 0.000000 0.000000 10.000000 
Rope1_Seg04 0.000000 0.000000 0.000000 0.000000 0.000000 0.000000 10.000000 
Rope1_Seg05 0.000000 0.000000 0.000000 0.000000 0.000000 0.000000 10.000000 
Rope1_Seg06 0.000000 0.000000 0.000000 0.000000 0.000000 0.000000 10.000000 
Rope1_Seg07 0.000000 0.000000 0.000000 0.000000 0.000000 0.000000 10.000000 
Rope1_Seg09 0.000000 0.000000 0.000000 0.000000 0.000000 0.000000 10.000000 
L_mid_hand01 0.000000 0.000000 0.000000 0.000000 0.000000 0.000000 10.000000 
L_mid_hand02 0.000000 0.000000 0.000000 0.000000 0.000000 0.000000 10.000000 
L_mid_hand03 0.000000 0.000000 0.000000 0.000000 0.000000 0.000000 10.000000 
null_rope02_connect 0.000000 0.000000 0.000000 0.000000 0.000000 0.000000 10.000000 
Rope2_Seg01 0.000000 0.000000 0.000000 0.000000 0.000000 0.000000 10.000000 
Rope2_Seg02 0.000000 0.000000 0.000000 0.000000 0.000000 0.000000 10.000000 
Rope2_Seg03 0.000000 0.000000 0.000000 0.000000 0.000000 0.000000 10.000000 
Rope2_Seg04 0.000000 0.000000 0.000000 0.000000 0.000000 0.000000 10.000000 
Rope2_Seg05 0.000000 0.000000 0.000000 0.000000 0.000000 0.000000 10.000000 
Rope2_Seg06 0.000000 0.000000 0.000000 0.000000 0.000000 0.000000 10.000000 
Rope2_Seg07 0.000000 0.000000 0.000000 0.000000 0.000000 0.000000 10.000000 
Rope2_Seg09 0.000000 0.000000 0.000000 0.000000 0.000000 0.000000 10.000000 
R_mid_hand01 0.000000 0.000000 0.000000 0.000000 0.000000 0.000000 10.000000 
R_mid_hand02 0.000000 0.000000 0.000000 0.000000 0.000000 0.000000 10.000000 
R_mid_hand03 0.000000 0.000000 0.000000 0.000000 0.000000 0.000000 10.000000 
spine02 0.000000 0.000000 0.000000 0.000000 0.000000 0.000000 10.000000 
spine03 0.000000 0.000000 0.000000 0.000000 0.000000 0.000000 10.000000 
pelvis 0.000000 0.000000 0.000000 0.000000 0.000000 0.000000 10.000000 
null_rope03_connect 0.000000 0.000000 0.000000 0.000000 0.000000 0.000000 10.000000 
null_rope04_connect 0.000000 0.000000 0.000000 0.000000 0.000000 0.000000 10.000000 
Rope3_Seg01 0.000000 0.000000 0.000000 0.000000 0.000000 0.000000 10.000000 
Rope3_Seg02 0.000000 0.000000 0.000000 0.000000 0.000000 0.000000 10.000000 
Rope3_Seg03 0.000000 0.000000 0.000000 0.000000 0.000000 0.000000 10.000000 
Rope3_Seg04 0.000000 0.000000 0.000000 0.000000 0.000000 0.000000 10.000000 
Rope3_Seg05 0.000000 0.000000 0.000000 0.000000 0.000000 0.000000 10.000000 
Rope3_Seg06 0.000000 0.000000 0.000000 0.000000 0.000000 0.000000 10.000000 
Rope3_Seg07 0.000000 0.000000 0.000000 0.000000 0.000000 0.000000 10.000000 
Rope3_Seg08 0.000000 0.000000 0.000000 0.000000 0.000000 0.000000 10.000000 
Rope3_Seg09 0.000000 0.000000 0.000000 0.000000 0.000000 0.000000 10.000000 
R_rear_hand01 0.000000 0.000000 0.000000 0.000000 0.000000 0.000000 10.000000 
R_rear_hand02 0.000000 0.000000 0.000000 0.000000 0.000000 0.000000 10.000000 
R_rear_hand03 0.000000 0.000000 0.000000 0.000000 0.000000 0.000000 10.000000 
Rope4_Seg01 0.000000 0.000000 0.000000 0.000000 0.000000 0.000000 10.000000 
Rope4_Seg02 0.000000 0.000000 0.000000 0.000000 0.000000 0.000000 10.000000 
Rope4_Seg03 0.000000 0.000000 0.000000 0.000000 0.000000 0.000000 10.000000 
Rope4_Seg04 0.000000 0.000000 0.000000 0.000000 0.000000 0.000000 10.000000 
Rope4_Seg05 0.000000 0.000000 0.000000 0.000000 0.000000 0.000000 10.000000 
Rope4_Seg06 0.000000 0.000000 0.000000 0.000000 0.000000 0.000000 10.000000 
Rope4_Seg07 0.000000 0.000000 0.000000 0.000000 0.000000 0.000000 10.000000 
Rope4_Seg08 0.000000 0.000000 0.000000 0.000000 0.000000 0.000000 10.000000 
Rope4_Seg09 0.000000 0.000000 0.000000 0.000000 0.000000 0.000000 10.000000 
L_rear_hand01 0.000000 0.000000 0.000000 0.000000 0.000000 0.000000 10.000000 
L_rear_hand02 0.000000 0.000000 0.000000 0.000000 0.000000 0.000000 10.000000 
L_rear_hand03 0.000000 0.000000 0.000000 0.000000 0.000000 0.000000 10.000000 
#Beginning of Data. Separated by tabs
#Fr	Tx	Ty	Tz	Rx	Ry	Rz	SF
[MASTER]
19 0.000000 0.000000 0.000000 0.001660 0.001660 0.001660 0.000000
20 0.000000 0.000000 0.000000 0.001660 0.001660 0.001660 0.000000
[root]
19 -32.989746 -54.012772 4925.950684 -93.350746 -15.157047 -89.454430 4926.356934
20 -31.378965 -54.873394 4976.269531 -85.746918 -14.378634 -86.784592 4976.671387
[chest]
19 -84.512650 -34.090519 0.000000 -28.159004 -16.730509 178.255859 91.129311
20 -84.512650 -34.090519 0.000000 -30.769293 -11.428895 178.410446 91.129311
[L_mid_tent01]
19 27.299562 22.177721 -249.918213 4.927631 50.802490 82.884361 252.381119
20 27.299564 22.177723 -249.918213 5.353866 54.432392 83.421066 252.381119
[R_mid_tent01]
19 23.228794 24.509907 226.238495 160.432037 -47.061241 87.899765 228.744751
20 23.228794 24.509907 226.238495 160.432037 -47.061241 87.899765 228.744751
[spine01]
19 -0.361383 -0.195265 0.000000 0.002062 0.001122 32.879829 0.410763
20 -0.361383 -0.195265 0.000000 0.002062 0.001122 32.879829 0.410763
[Bip01_Neck]
19 165.484543 71.581718 0.000119 176.643677 -1.657967 43.431911 180.302734
20 165.484543 71.581718 0.000119 176.643677 -1.657967 43.431911 180.302734
[L_humerus]
19 -13.983130 -135.272980 -120.471481 122.542870 75.423637 -137.601730 181.680161
20 -13.983130 -135.272980 -120.471481 156.317398 70.210068 -112.010254 181.680161
[R_humerus]
19 -13.983309 -135.273102 125.287651 -167.474594 -58.093533 -99.661804 184.909012
20 -13.983309 -135.273102 125.287651 -172.382294 -66.903816 -92.553978 184.909012
[weapon_bone]
19 235.964890 -300.705902 0.000000 0.000000 -89.951546 -128.212341 382.234833
20 235.964890 -300.705902 0.000000 0.000000 -89.951546 -128.212341 382.234833
[Bip01_Head]
19 213.329880 186.033737 7.667585 31.289873 21.536648 -32.939350 283.155396
20 213.330887 186.030930 7.703661 30.042747 27.497366 -26.127708 283.155273
[eye_left_bone]
19 -24.626970 125.451866 -64.772606 0.000000 -90.000000 -99.840431 143.318359
20 -24.626970 125.451866 -64.772606 0.000000 -90.000000 -99.840431 143.318359
[eye_right_bone]
19 -24.626970 125.451866 64.327362 0.000000 -89.965736 80.156380 143.117676
20 -24.626970 125.451866 64.327362 0.000000 -89.965736 80.156380 143.117676
[L_forearm]
19 322.776093 0.000000 -0.000119 0.000119 -0.002344 -95.807457 322.776093
20 322.776093 0.000000 -0.000119 0.000119 -0.002344 -95.807457 322.776093
[L_front_hand]
19 241.149185 -0.042021 -3.300071 -178.667953 -1.835447 -27.422350 241.171753
20 241.149185 -0.042021 -3.300071 -178.667953 -1.835447 -27.422350 241.171753
[L_weapon_bone]
19 156.183838 0.000000 0.000000 0.000014 0.000007 0.000001 156.183838
20 156.183838 0.000000 0.000000 0.000014 0.000007 0.000001 156.183838
[L_front_hand01_01]
19 86.095154 20.947098 -0.655860 -0.291918 -0.522545 67.227623 88.609184
20 86.095154 20.947098 -0.655860 -0.299135 -0.518030 67.911942 88.609184
[L_front_hand02_01]
19 86.935165 -11.437475 24.513514 143.299133 -55.645802 -48.269917 91.046425
20 86.935165 -11.437475 24.513514 144.114838 -56.047676 -49.250378 91.046425
[L_front_hand03_01]
19 86.637497 -14.123976 -20.424902 -143.556351 53.862484 -50.232792 90.126129
20 86.637497 -14.123976 -20.424902 -144.319244 54.262909 -51.171417 90.126129
[L_front_hand01_02]
19 71.020905 -0.000179 0.000030 0.000316 -0.002326 -105.462708 71.020905
20 71.020905 -0.000179 0.000030 0.000317 -0.002326 -105.501534 71.020905
[L_front_hand02_02]
19 71.020927 -0.000119 0.000060 0.000316 -0.002326 -105.462708 71.020927
20 71.020927 -0.000119 0.000060 0.000317 -0.002326 -105.501534 71.020927
[L_front_hand03_02]
19 71.020905 -0.000060 0.000060 0.000316 -0.002326 -105.462708 71.020905
20 71.020905 -0.000060 0.000060 0.000317 -0.002326 -105.501534 71.020905
[R_forearm]
19 322.776428 -0.000060 0.000030 0.209504 0.012586 -94.339050 322.776428
20 322.776428 -0.000060 0.000030 0.209504 0.012586 -94.339050 322.776428
[R_front_hand]
19 238.847015 -0.006795 2.210259 -2.635298 -10.645461 -26.312506 238.857239
20 238.847015 -0.006795 2.210259 -2.635298 -10.645461 -26.312506 238.857239
[R_weapon_bone]
19 155.664093 0.002503 -0.000030 0.003487 0.001180 -90.988930 155.664078
20 155.664093 0.002503 -0.000030 0.003487 0.001180 -90.988930 155.664078
[R_front_hand01_01]
19 87.624611 14.231146 22.918642 -141.470352 -54.661587 46.147430 91.683487
20 87.624611 14.231146 22.918642 -142.976746 -55.478233 47.985172 91.683487
[R_front_hand02_01]
19 89.356956 14.367283 -19.491137 142.182632 53.068485 48.753609 92.579636
20 89.356956 14.367283 -19.491137 143.617325 53.874443 50.539886 92.579636
[R_front_hand03_01]
19 87.286232 -22.307278 -0.143439 0.083738 -0.444646 -65.861656 90.091743
20 87.286232 -22.307278 -0.143439 0.095752 -0.445027 -67.192543 90.091743
[R_front_hand01_02]
19 71.020905 0.000060 0.000119 0.002323 -0.000334 106.381714 71.020905
20 71.020905 0.000060 0.000119 0.002323 -0.000334 106.381714 71.020905
[R_front_hand02_02]
19 71.020844 -0.000030 -0.000119 0.002323 -0.000334 106.381714 71.020836
20 71.020844 -0.000030 -0.000119 0.002323 -0.000334 106.381714 71.020836
[R_front_hand03_02]
19 71.020905 0.000000 0.000030 0.002323 -0.000334 106.381714 71.020905
20 71.020905 0.000000 0.000030 0.002323 -0.000334 106.381714 71.020905
[null_rope01_connect]
19 328.732483 0.000000 -0.000238 -152.309174 -36.023525 177.544479 328.732483
20 328.732483 0.000000 -0.000238 -154.130280 -40.987797 178.678009 328.732483
[Rope1_Seg01]
19 0.000031 -0.000076 -0.000222 98.960709 -24.852781 -173.918411 0.000237
20 0.000033 -0.000076 -0.000243 97.901947 -23.195456 -171.461990 0.000257
[Rope1_Seg02]
19 139.999863 -0.000179 0.000000 1.379554 -9.996517 1.901853 139.999863
20 139.999863 -0.000179 0.000000 0.714404 -7.937341 3.953760 139.999863
[Rope1_Seg03]
19 139.999924 0.000060 -0.000060 -2.105490 -33.201633 3.897279 139.999924
20 139.999924 0.000060 -0.000060 -1.228060 -19.385830 9.594809 139.999924
[Rope1_Seg04]
19 139.999924 -0.000060 -0.000119 -35.158157 -51.380047 13.872240 139.999924
20 139.999924 -0.000060 -0.000119 -26.936968 -45.752731 23.768147 139.999924
[Rope1_Seg05]
19 139.999832 0.000119 -0.000060 8.583800 -12.053092 19.665777 139.999832
20 139.999832 0.000119 -0.000060 11.217273 -8.731284 18.218864 139.999832
[Rope1_Seg06]
19 139.999954 0.000119 -0.000060 6.698236 -4.649209 7.017983 139.999954
20 139.999954 0.000119 -0.000060 23.324968 1.652618 8.967025 139.999954
[Rope1_Seg07]
19 139.999985 0.000060 0.000000 6.169937 -2.317236 3.488733 139.999985
20 139.999985 0.000060 0.000000 12.106942 0.760377 4.106723 139.999985
[Rope1_Seg09]
19 121.602913 0.000119 -0.000089 -89.793175 -1.359789 0.847147 121.602913
20 121.602913 0.000119 -0.000089 -89.793175 -1.359789 0.847147 121.602913
[L_mid_hand01]
19 103.859421 1.038730 8.195221 130.544373 -67.584534 -38.866943 104.187431
20 103.859421 1.038730 8.195221 130.544373 -67.584534 -38.866943 104.187431
[L_mid_hand02]
19 105.572853 -4.139662 -10.864139 -168.923172 43.409309 -73.498886 106.211075
20 105.572853 -4.139662 -10.864139 -168.923172 43.409309 -73.498886 106.211075
[L_mid_hand03]
19 104.641464 17.579376 -3.913581 -6.012627 17.808174 74.893669 106.179977
20 104.641464 17.579376 -3.913581 -6.012627 17.808174 74.893669 106.179977
[null_rope02_connect]
19 328.732849 0.000179 -0.000119 -135.068314 42.485226 19.977982 328.732849
20 328.732849 0.000179 -0.000119 -137.459808 34.010315 17.775293 328.732849
[Rope2_Seg01]
19 -0.000156 0.000113 0.000028 -93.377541 39.985191 -10.098248 0.000194
20 -0.000165 0.000110 0.000021 -78.961411 32.409389 -5.686479 0.000199
[Rope2_Seg02]
19 139.999741 -0.000060 -0.000119 6.286443 -11.153659 -1.224907 139.999756
20 139.999741 -0.000060 -0.000119 10.546445 -15.287787 -4.284187 139.999756
[Rope2_Seg03]
19 140.000107 0.000030 0.000000 6.125826 -22.191010 -0.580000 140.000107
20 140.000107 0.000030 0.000000 7.515076 -27.930639 -2.768459 140.000107
[Rope2_Seg04]
19 139.999802 0.000000 -0.000060 1.072351 -27.614244 2.773966 139.999802
20 139.999802 0.000000 -0.000060 0.529627 -25.281820 0.764861 139.999802
[Rope2_Seg05]
19 139.999985 -0.000060 0.000119 -5.215997 -33.285736 17.094238 139.999985
20 139.999985 -0.000060 0.000119 -2.196062 -17.898708 0.252397 139.999985
[Rope2_Seg06]
19 139.999893 -0.000030 -0.000119 -15.888834 -40.152630 20.713034 139.999893
20 139.999893 -0.000030 -0.000119 -13.341384 -31.864746 -0.900347 139.999893
[Rope2_Seg07]
19 139.999893 0.000060 -0.000060 -146.408035 -9.239557 2.281697 139.999893
20 139.999893 0.000060 -0.000060 -25.177814 -19.752430 -5.472303 139.999893
[Rope2_Seg09]
19 121.338966 0.000089 -0.000060 33.793236 -1.359788 -0.847141 121.338966
20 121.338966 0.000089 -0.000060 33.793236 -1.359788 -0.847141 121.338966
[R_mid_hand01]
19 104.680779 11.144459 -10.335981 -20.399689 43.830399 64.493866 105.778534
20 104.680779 11.144459 -10.335981 -17.390701 44.882233 68.793839 105.778534
[R_mid_hand02]
19 104.070427 2.443552 8.231699 55.242622 -64.206039 32.532093 104.424065
20 104.070427 2.443552 8.231699 50.967751 -66.804413 37.227455 104.424065
[R_mid_hand03]
19 106.028137 -11.221827 -5.996406 -175.861633 15.275426 -71.940269 106.788818
20 106.028137 -11.221827 -5.996406 -176.756866 15.486362 -75.308266 106.788818
[spine02]
19 129.756927 0.001550 0.000119 -1.023899 -3.926965 6.770993 129.756927
20 129.756927 0.001550 0.000119 -1.023899 -3.926965 6.770993 129.756927
[spine03]
19 78.613892 0.087530 -4.898843 1.040681 4.146420 4.212376 78.766426
20 78.613892 0.087544 -4.898840 1.040681 4.146420 4.212376 78.766426
[pelvis]
19 169.435242 0.051022 0.000000 0.019518 -0.190233 -10.721436 169.435257
20 169.435242 0.051022 0.000000 0.019518 -0.190233 -10.721436 169.435257
[null_rope03_connect]
19 -1.257226 -2.466202 137.391083 -175.244125 -86.451767 -112.645943 137.418976
20 -1.257226 -2.466202 137.391083 48.426105 -84.244728 22.787231 137.418976
[null_rope04_connect]
19 -1.259640 -2.480268 -137.844437 -175.244125 -86.451767 -112.645943 137.872513
20 -1.259640 -2.480268 -137.844437 48.426105 -84.244728 22.787231 137.872513
[Rope3_Seg01]
19 0.000062 -0.000042 0.000250 -133.356903 -28.594229 -75.831116 0.000261
20 0.000066 -0.000041 0.000264 -138.138016 -39.101154 -71.001282 0.000275
[Rope3_Seg02]
19 139.999924 -0.000119 0.000060 3.116497 -13.667701 -16.716307 139.999924
20 139.999924 -0.000119 0.000060 0.999400 -8.809584 -14.433875 139.999924
[Rope3_Seg03]
19 139.999924 -0.000119 0.000119 1.286861 -7.736960 -10.873476 139.999924
20 139.999924 -0.000119 0.000119 0.425138 -6.918416 -11.334256 139.999924
[Rope3_Seg04]
19 139.999924 0.000119 0.000000 1.070995 -4.581622 -5.666493 139.999924
20 139.999924 0.000119 0.000000 -0.102428 -4.391552 -7.235155 139.999924
[Rope3_Seg05]
19 139.999924 -0.000238 0.000060 7.098297 -7.689779 -3.913229 139.999924
20 139.999924 -0.000238 0.000060 -0.071604 -3.632762 -5.966268 139.999924
[Rope3_Seg06]
19 139.999893 -0.000119 -0.000060 25.164772 -14.606377 -3.464377 139.999893
20 139.999893 -0.000119 -0.000060 -0.196440 -5.347756 -8.820717 139.999893
[Rope3_Seg07]
19 139.999771 0.000060 -0.000119 36.069958 -14.101855 2.001595 139.999771
20 139.999771 0.000060 -0.000119 -4.515981 -6.229996 -10.584372 139.999771
[Rope3_Seg08]
19 139.999985 -0.000060 0.000000 23.704470 -7.614967 7.389276 139.999985
20 139.999985 -0.000060 0.000000 -154.814316 -4.438892 -9.329769 139.999985
[Rope3_Seg09]
19 90.185997 -0.000179 -0.000060 89.793228 -1.359877 -0.847183 90.185997
20 90.185997 -0.000179 -0.000060 89.793228 -1.359877 -0.847183 90.185997
[R_rear_hand01]
19 103.366196 -6.073594 -10.757982 -175.914093 24.346794 -69.567574 104.101845
20 103.366196 -6.073594 -10.757982 -177.218140 24.518011 -72.727440 104.101845
[R_rear_hand02]
19 100.509819 12.039542 -7.992327 -15.704340 35.886925 67.395035 101.543350
20 100.509819 12.039542 -7.992327 -13.655097 36.621037 70.859306 101.543350
[R_rear_hand03]
19 101.539970 5.215704 5.435467 74.640633 -68.020927 18.152254 101.819031
20 101.539970 5.215704 5.435467 72.467621 -70.792877 20.476612 101.819031
[Rope4_Seg01]
19 0.000031 -0.000014 -0.000277 55.253284 -23.213692 -116.585526 0.000280
20 0.000033 -0.000010 -0.000284 54.614483 -22.224062 -115.650024 0.000286
[Rope4_Seg02]
19 139.999985 0.000060 0.000119 0.572974 -14.027328 -7.433795 139.999985
20 139.999985 0.000060 0.000119 1.995277 -14.298341 -3.369685 139.999985
[Rope4_Seg03]
19 139.999924 0.000000 -0.000238 0.518931 -21.703474 -12.109906 139.999924
20 139.999924 0.000000 -0.000238 6.650106 -21.416742 -4.615295 139.999924
[Rope4_Seg04]
19 139.999985 0.000000 0.000119 -10.057365 -18.935045 -11.309172 139.999985
20 139.999985 0.000000 0.000119 19.328493 -20.351877 -2.338184 139.999985
[Rope4_Seg05]
19 139.999802 -0.000060 -0.000119 -151.784149 -17.563839 -16.004238 139.999802
20 139.999802 -0.000060 -0.000119 83.213814 -21.037981 5.700837 139.999802
[Rope4_Seg06]
19 139.999924 0.000000 0.000060 -4.027770 23.622417 6.773575 139.999924
20 139.999924 0.000000 0.000060 36.523926 3.955514 24.278952 139.999924
[Rope4_Seg07]
19 139.999802 0.000000 0.000000 -0.137597 11.294450 4.322805 139.999802
20 139.999802 0.000000 0.000000 5.966827 9.531001 9.733027 139.999802
[Rope4_Seg08]
19 139.999924 0.000000 0.000119 -1.562321 5.683739 2.217160 139.999924
20 139.999924 0.000000 0.000119 0.260791 5.328901 4.500619 139.999924
[Rope4_Seg09]
19 90.185791 0.000060 0.000060 -135.617828 2.228885 0.850567 90.185791
20 90.185791 0.000060 0.000060 -135.617828 2.228885 0.850567 90.185791
[L_rear_hand01]
19 101.696655 -8.392275 -7.654577 -12.874829 -36.868488 107.832764 102.329041
20 101.696655 -8.392275 -7.654577 -12.874829 -36.868488 107.832764 102.329041
[L_rear_hand02]
19 102.726799 -1.568258 5.773216 71.484581 71.816628 158.486160 102.900848
20 102.726799 -1.568258 5.773216 71.484581 71.816628 158.486160 102.900848
[L_rear_hand03]
19 104.552910 9.721220 -10.420293 -177.714203 -24.565960 -106.089035 105.519653
20 104.552910 9.721220 -10.420293 -177.714203 -24.565960 -106.089035 105.519653
